<svg width="116" height="66" viewBox="0 0 116 66" fill="none" xmlns="http://www.w3.org/2000/svg">
<path d="M21.94 20.97C21.265 22.05 20.23 23.085 19.51 23.67C18.16 22.455 16.585 21.375 14.74 20.565C15.46 18.81 16.585 17.19 17.935 15.795C19.825 16.38 21.58 17.1 22.3 18.18C22.885 17.325 23.515 16.515 24.235 15.795C26.53 16.515 28.645 17.415 28.915 18.9C29.185 20.25 27.07 22.68 25.81 23.67C24.685 22.635 23.38 21.735 21.94 20.97ZM34.63 36.72L35.53 38.07V48.06L34.63 49.5H28.69L27.025 42.615L24.73 49.5C18.79 48.915 15.28 47.61 12.85 45.765C12.85 39.96 13.165 34.92 17.575 32.535L23.83 29.16L23.425 27.54L28.6 23.625H29.05C29.77 28.665 30.58 32.76 31.3 36.72H34.63ZM18.61 35.685C19.96 36.225 22.66 36.585 25.63 36.675L24.685 32.76L18.61 35.685ZM60.5352 27C65.2602 28.8 67.8702 32.805 68.2302 36.72V40.005L65.3502 49.5H48.1602H47.8002C46.2252 49.5 44.7402 49.005 43.4352 48.195C42.1752 47.43 41.0052 46.395 40.1052 45.045L38.7552 49.5H34.6152L33.7152 48.285V37.755L34.6152 36.72H38.3952L40.3752 29.565L42.1752 29.925C42.1302 30.15 42.1302 30.42 42.1302 30.645C42.1302 33.165 42.7152 35.775 45.8652 36.54V34.38C49.2852 31.68 55.9002 28.215 60.5352 27ZM64.1802 36.72C62.6502 35.28 60.5352 33.795 58.6452 33.255L49.2852 36.72H64.1802ZM85.6642 36.72L86.5642 38.115V48.015L85.6642 49.5C84.3592 49.5 83.2342 49.05 82.1092 48.375C81.4342 53.19 79.8592 57.105 77.0692 60.345L66.2242 53.73L66.1792 52.56C71.7142 51.66 76.0792 49.275 77.5192 46.215L72.0292 35.82L78.6442 29.61H79.0942C80.2642 31.815 81.0292 34.29 81.6142 36.72H85.6642ZM97.7453 6.47L97.4753 7.01C96.7553 6.965 96.3053 6.785 95.7203 6.515C94.9103 7.775 93.8303 8.45 92.4353 8.45C92.0753 8.45 91.7153 8.405 91.3103 8.315L90.0953 5.345L90.4103 5.075C91.6703 5.615 93.0203 6.11 94.1453 6.11C94.3703 6.11 94.5953 6.11 94.8203 6.065C93.9203 5.57 92.6153 4.355 92.6153 3.32C92.6153 3.095 92.7053 2.87 92.8403 2.645C93.8303 0.979999 95.7203 0.709997 96.3053 0.664998C96.9353 1.16 97.2503 1.925 97.2503 2.825C97.2503 3.59 97.0253 4.4 96.6653 5.255L97.7453 6.47ZM94.0103 2.51L95.5403 3.995C95.5853 3.905 95.5853 3.77 95.5853 3.59C95.5853 3.005 95.3153 2.15 95.1353 1.88L94.0103 2.51ZM97.3347 13.185C97.6047 14.535 95.4897 16.965 94.2297 17.955C92.8797 16.74 91.3047 15.66 89.4597 14.85C90.1797 13.095 91.3047 11.475 92.6547 10.08C94.9497 10.8 97.0647 11.7 97.3347 13.185ZM94.1847 19.215C98.6847 20.475 103.05 27 103.05 35.325V40.005L99.8097 49.5H85.6797L84.7797 47.925V38.205L85.6797 36.72H98.1447C98.1447 36.36 98.1447 36.045 98.0997 35.73H93.1947C90.1347 35.73 87.0297 34.965 87.0297 30.69C87.0297 26.37 91.2597 20.745 94.1847 19.215ZM90.5847 28.125H95.4447C94.7697 26.865 93.3297 25.47 92.4747 24.975L90.5847 28.125Z" fill="white"/>
</svg>
